<?xml version="1.0"?>
<svg xmlns="http://www.w3.org/2000/svg" height="512px" viewBox="-16 0 511 511.9969" width="512px"><g><path d="m306.925781 57.582031-8.074219.449219c-8.269531.460938-14.605468 7.539062-14.144531 15.808594.445313 7.988281 7.0625 14.167968 14.964844 14.167968.277344 0 .5625-.007812.847656-.023437l64.890625-3.609375c5.347656-.296875 10.132813-3.425781 12.550782-8.207031 2.417968-4.78125 2.101562-10.492188-.832032-14.976563l-35.5625-54.398437c-4.53125-6.933594-13.832031-8.878907-20.761718-4.347657-6.933594 4.535157-8.882813 13.832032-4.347657 20.765626l5.070313 7.753906c-32.960938-11.917969-68.480469-16.597656-103.824219-13.328125-55.429687 5.128906-107.664063 29.664062-147.085937 69.085937-42.902344 42.898438-67.746094 99.898438-69.957032 160.496094-2.199218 60.273438 18.113282 118.613281 57.199219 164.273438 2.96875 3.46875 7.171875 5.25 11.402344 5.246093 3.453125 0 6.921875-1.183593 9.75-3.601562 6.292969-5.386719 7.027343-14.855469 1.640625-21.148438-70.570313-82.445312-65.660156-207.214843 11.175781-284.054687 57.21875-57.21875 141.25-75.21875 215.097656-50.351563zm0 0" data-original="#000000" class="active-path" data-old_color="#000000" fill="#FFFFFF"/><path d="m421.929688 100.507812c-5.386719-6.292968-14.855469-7.027343-21.148438-1.640624-6.292969 5.386718-7.027344 14.855468-1.640625 21.148437 70.5625 82.441406 65.652344 207.210937-11.183594 284.046875-57.21875 57.21875-141.25 75.21875-215.097656 50.351562l8.074219-.449218c8.269531-.457032 14.605468-7.535156 14.144531-15.808594-.460937-8.269531-7.523437-14.59375-15.808594-14.144531l-64.890625 3.609375c-5.351562.296875-10.136718 3.425781-12.554687 8.210937-1.628907 3.222657-2.011719 6.867188-1.191407 10.273438-1.15625 3.089843.179688 4.730469 3.652344 7.195312l33.933594 51.902344c2.878906 4.402344 7.675781 6.792969 12.566406 6.792969 2.816406 0 5.664063-.792969 8.195313-2.445313 6.933593-4.535156 8.878906-13.828125 4.347656-20.765625l-5.0625-7.742187c26.109375 9.4375 53.824219 14.332031 81.785156 14.332031 7.335938 0 14.691407-.335938 22.035157-1.015625 55.425781-5.128906 107.660156-29.660156 147.085937-69.085937 42.898437-42.898438 67.742187-99.898438 69.953125-160.492188 2.203125-60.269531-18.113281-118.609375-57.195312-164.273438zm0 0" data-original="#000000" class="active-path" data-old_color="#000000" fill="#FFFFFF"/><path d="m122.554688 327.46875c0 8.285156 6.714843 15 15 15h204.675781c8.28125 0 15-6.714844 15-15v-135.96875l-98.984375 83.492188c-5.316406 4.484374-11.835938 6.726562-18.355469 6.726562-6.515625 0-13.035156-2.238281-18.351563-6.726562l-98.984374-83.492188zm0 0" data-original="#000000" class="active-path" data-old_color="#000000" fill="#FFFFFF"/><path d="m336.746094 169.527344h-193.707032l96.851563 81.699218zm0 0" data-original="#000000" class="active-path" data-old_color="#000000" fill="#FFFFFF"/></g> </svg>
