<?xml version="1.0"?>
<svg xmlns="http://www.w3.org/2000/svg" viewBox="0 0 64 64" width="512px" height="512px" class=""><g><g id="Web"><circle cx="32" cy="32" r="7" data-original="#000000" class="active-path" data-old_color="#000000" fill="#FFFFFF"/><path d="M30,4H4v6H30ZM8,8H6V6H8Zm4,0H10V6h2Zm4,0H14V6h2ZM28,8H26V6h2Z" data-original="#000000" class="active-path" data-old_color="#000000" fill="#FFFFFF"/><path d="M19.97,13.242,17.7,22.335a.972.972,0,0,1,.16-.234L22.1,17.857a1,1,0,0,1,1.321-.082L26.543,20.2q.486-.227.975-.409l.49-3.919A1,1,0,0,1,29,15h1V12H4V30H15V29l-.97-.242,4-16ZM13.707,26.293l-1.414,1.414-6-6a1,1,0,0,1,0-1.414l6-6,1.414,1.414L8.414,21Z" data-original="#000000" class="active-path" data-old_color="#000000" fill="#FFFFFF"/><path d="M34.575,43.337a1,1,0,0,1,.7-.831,10.926,10.926,0,0,0,1.838-.77,1,1,0,0,1,1.08.1l2.92,2.272L44.1,41.109l-2.272-2.92a1,1,0,0,1-.1-1.08,10.926,10.926,0,0,0,.77-1.838,1,1,0,0,1,.831-.7L47,34.117V29.883l-3.663-.458a1,1,0,0,1-.831-.7,10.926,10.926,0,0,0-.77-1.838,1,1,0,0,1,.1-1.08l2.272-2.92L41.109,19.9l-2.92,2.272a1,1,0,0,1-1.08.1,10.926,10.926,0,0,0-1.838-.77,1,1,0,0,1-.7-.831L34.117,17H29.883l-.458,3.663a1,1,0,0,1-.7.831,10.926,10.926,0,0,0-1.838.77,1,1,0,0,1-1.08-.1L22.891,19.9,19.9,22.891l2.272,2.92a1,1,0,0,1,.1,1.08,10.926,10.926,0,0,0-.77,1.838,1,1,0,0,1-.831.7L17,29.883v4.234l3.663.458a1,1,0,0,1,.831.7,10.926,10.926,0,0,0,.77,1.838,1,1,0,0,1-.1,1.08L19.9,41.109,22.891,44.1l2.92-2.272a1,1,0,0,1,1.08-.1,10.926,10.926,0,0,0,1.838.77,1,1,0,0,1,.7.831L29.883,47h4.234ZM23,32a9,9,0,1,1,9,9A9.01,9.01,0,0,1,23,32Z" data-original="#000000" class="active-path" data-old_color="#000000" fill="#FFFFFF"/><path d="M20.2,26.543l-2.429-3.121a.994.994,0,0,1-.2-.6l-1.284,5.136,3.5-.438Q19.977,27.029,20.2,26.543Z" data-original="#000000" class="active-path" data-old_color="#000000" fill="#FFFFFF"/><path d="M49,35a1,1,0,0,1-.876.992l-3.919.49q-.181.489-.409.975L45.775,40H60V34H49Zm7,1h2v2H56Z" data-original="#000000" class="active-path" data-old_color="#000000" fill="#FFFFFF"/><path d="M41.9,46.142a1,1,0,0,1-1.321.082L37.457,43.8q-.486.227-.975.409l-.49,3.919A1,1,0,0,1,35,49H34V60H60V42H46.042ZM52.364,49.05l-5.657,5.657a1,1,0,0,1-1.414,0l-2.828-2.828,1.414-1.414L46,52.586l4.95-4.95Z" data-original="#000000" class="active-path" data-old_color="#000000" fill="#FFFFFF"/><path d="M39.284,7.13l2.665-2.665L40.535,3.051,36.293,7.293a1,1,0,0,0,0,1.414l4.242,4.242,1.414-1.414L39.616,9.2A19.013,19.013,0,0,1,56,28h2A21.026,21.026,0,0,0,39.284,7.13Z" data-original="#000000" class="active-path" data-old_color="#000000" fill="#FFFFFF"/><path d="M23.465,51.051l-1.414,1.414L24.384,54.8A19.013,19.013,0,0,1,8,36H6A21.026,21.026,0,0,0,24.716,56.87l-2.665,2.665,1.414,1.414,4.242-4.242a1,1,0,0,0,0-1.414Z" data-original="#000000" class="active-path" data-old_color="#000000" fill="#FFFFFF"/></g></g> </svg>
